<mxfile host="app.diagrams.net" agent="Mozilla/5.0 (X11; Linux x86_64) AppleWebKit/537.36 (KHTML, like Gecko) Chrome/134.0.0.0 Safari/537.36" version="26.3.0">
  <diagram name="Page-1" id="41kAqGqCdxrdHtbHoZ40">
    <mxGraphModel dx="3699" dy="2408" grid="1" gridSize="10" guides="1" tooltips="1" connect="1" arrows="1" fold="1" page="1" pageScale="1" pageWidth="1169" pageHeight="827" background="none" math="0" shadow="0">
      <root>
        <mxCell id="0" />
        <mxCell id="1" parent="0" />
        <mxCell id="1RPcp6b-KM-TzmGu6j6Q-30" value="&lt;font style=&quot;font-size: 24px;&quot;&gt;Home network&lt;/font&gt;" style="rounded=0;whiteSpace=wrap;html=1;sketch=1;hachureGap=4;jiggle=2;curveFitting=1;fontFamily=Architects Daughter;fontSource=https%3A%2F%2Ffonts.googleapis.com%2Fcss%3Ffamily%3DArchitects%2BDaughter;labelPosition=center;verticalLabelPosition=top;align=center;verticalAlign=bottom;movable=1;resizable=1;rotatable=1;deletable=1;editable=1;locked=0;connectable=1;container=0;" parent="1" vertex="1">
          <mxGeometry x="-1073.1904761904766" y="-1040" width="484.19047619047603" height="435" as="geometry" />
        </mxCell>
        <mxCell id="1RPcp6b-KM-TzmGu6j6Q-45" style="edgeStyle=orthogonalEdgeStyle;rounded=0;sketch=1;hachureGap=4;jiggle=2;curveFitting=1;orthogonalLoop=1;jettySize=auto;html=1;exitX=0.5;exitY=1;exitDx=0;exitDy=0;entryX=0.5;entryY=0;entryDx=0;entryDy=0;fontFamily=Architects Daughter;fontSource=https%3A%2F%2Ffonts.googleapis.com%2Fcss%3Ffamily%3DArchitects%2BDaughter;endArrow=classic;startFill=1;curved=1;startArrow=classic;endFill=1;" parent="1" source="1RPcp6b-KM-TzmGu6j6Q-34" target="1RPcp6b-KM-TzmGu6j6Q-44" edge="1">
          <mxGeometry relative="1" as="geometry" />
        </mxCell>
        <mxCell id="1RPcp6b-KM-TzmGu6j6Q-46" value="&lt;font style=&quot;font-size: 16px;&quot;&gt;SSH&lt;/font&gt;" style="edgeLabel;html=1;align=center;verticalAlign=middle;resizable=0;points=[];sketch=1;hachureGap=4;jiggle=2;curveFitting=1;fontFamily=Architects Daughter;fontSource=https%3A%2F%2Ffonts.googleapis.com%2Fcss%3Ffamily%3DArchitects%2BDaughter;container=0;" parent="1RPcp6b-KM-TzmGu6j6Q-45" vertex="1" connectable="0">
          <mxGeometry x="0.7412" y="-17" relative="1" as="geometry">
            <mxPoint as="offset" />
          </mxGeometry>
        </mxCell>
        <mxCell id="1RPcp6b-KM-TzmGu6j6Q-44" value="&lt;font style=&quot;font-size: 16px;&quot;&gt;Bastion&lt;br&gt;Host&lt;/font&gt;" style="whiteSpace=wrap;html=1;aspect=fixed;sketch=1;hachureGap=4;jiggle=2;curveFitting=1;fontFamily=Architects Daughter;fontSource=https%3A%2F%2Ffonts.googleapis.com%2Fcss%3Ffamily%3DArchitects%2BDaughter;container=0;" parent="1" vertex="1">
          <mxGeometry x="-710.0476190476197" y="-722.5" width="80" height="80" as="geometry" />
        </mxCell>
        <mxCell id="6lFlrr7OIrl2liaq1CcA-3" value="&lt;font style=&quot;font-size: 20px;&quot;&gt;K3s&lt;/font&gt;" style="rounded=0;whiteSpace=wrap;html=1;sketch=1;hachureGap=4;jiggle=2;curveFitting=1;fontFamily=Architects Daughter;fontSource=https%3A%2F%2Ffonts.googleapis.com%2Fcss%3Ffamily%3DArchitects%2BDaughter;dashed=1;dashPattern=12 12;labelPosition=left;verticalLabelPosition=top;align=right;verticalAlign=bottom;container=0;" parent="1" vertex="1">
          <mxGeometry x="-1002.5793650793654" y="-985" width="353.0555555555554" height="180" as="geometry" />
        </mxCell>
        <mxCell id="1RPcp6b-KM-TzmGu6j6Q-22" value="&lt;font face=&quot;Architects Daughter&quot; style=&quot;font-size: 24px;&quot;&gt;cloud.inlets.dev&lt;/font&gt;" style="rounded=0;whiteSpace=wrap;html=1;glass=0;sketch=1;curveFitting=1;jiggle=2;strokeColor=default;gradientColor=none;labelPosition=center;verticalLabelPosition=top;align=center;verticalAlign=bottom;container=0;" parent="1" vertex="1">
          <mxGeometry x="-1722.8126984126984" y="-970" width="494.2777777777777" height="300" as="geometry" />
        </mxCell>
        <mxCell id="1RPcp6b-KM-TzmGu6j6Q-23" value="&lt;font style=&quot;font-size: 20px;&quot;&gt;Tunnels&lt;/font&gt;" style="rounded=0;whiteSpace=wrap;html=1;sketch=1;hachureGap=4;jiggle=2;curveFitting=1;fontFamily=Architects Daughter;fontSource=https%3A%2F%2Ffonts.googleapis.com%2Fcss%3Ffamily%3DArchitects%2BDaughter;dashed=1;dashPattern=12 12;labelPosition=left;verticalLabelPosition=top;align=right;verticalAlign=bottom;container=0;" parent="1" vertex="1">
          <mxGeometry x="-1627.9920634920636" y="-910" width="322.79365079365067" height="180" as="geometry" />
        </mxCell>
        <mxCell id="1RPcp6b-KM-TzmGu6j6Q-24" value="&lt;font style=&quot;font-size: 20px;&quot;&gt;i.coresec.zone&lt;/font&gt;" style="rounded=0;whiteSpace=wrap;html=1;sketch=1;hachureGap=4;jiggle=2;curveFitting=1;fontFamily=Architects Daughter;fontSource=https%3A%2F%2Ffonts.googleapis.com%2Fcss%3Ffamily%3DArchitects%2BDaughter;container=0;" parent="1" vertex="1">
          <mxGeometry x="-1602.7738095238096" y="-890" width="272.3571428571427" height="60" as="geometry" />
        </mxCell>
        <mxCell id="1RPcp6b-KM-TzmGu6j6Q-26" value="" style="shape=umlActor;verticalLabelPosition=bottom;verticalAlign=top;html=1;outlineConnect=0;hachureGap=4;fontFamily=Architects Daughter;fontSource=https%3A%2F%2Ffonts.googleapis.com%2Fcss%3Ffamily%3DArchitects%2BDaughter;sketch=1;curveFitting=1;jiggle=2;container=0;" parent="1" vertex="1">
          <mxGeometry x="-1814.607142857143" y="-927.5" width="30.261904761904752" height="60" as="geometry" />
        </mxCell>
        <mxCell id="1RPcp6b-KM-TzmGu6j6Q-28" value="&lt;font style=&quot;font-size: 20px;&quot;&gt;Client&lt;/font&gt;" style="rounded=0;whiteSpace=wrap;html=1;sketch=1;hachureGap=4;jiggle=2;curveFitting=1;fontFamily=Architects Daughter;fontSource=https%3A%2F%2Ffonts.googleapis.com%2Fcss%3Ffamily%3DArchitects%2BDaughter;container=0;" parent="1" vertex="1">
          <mxGeometry x="-1860" y="-852.5" width="121.04761904761901" height="60" as="geometry" />
        </mxCell>
        <mxCell id="1RPcp6b-KM-TzmGu6j6Q-31" value="&lt;font style=&quot;font-size: 20px;&quot;&gt;ingress&lt;/font&gt;" style="rounded=0;whiteSpace=wrap;html=1;sketch=1;hachureGap=4;jiggle=2;curveFitting=1;fontFamily=Architects Daughter;fontSource=https%3A%2F%2Ffonts.googleapis.com%2Fcss%3Ffamily%3DArchitects%2BDaughter;container=0;" parent="1" vertex="1">
          <mxGeometry x="-982.4047619047623" y="-965" width="312.70634920634905" height="60" as="geometry" />
        </mxCell>
        <mxCell id="1RPcp6b-KM-TzmGu6j6Q-34" value="&lt;font style=&quot;font-size: 20px;&quot;&gt;snmiux&lt;/font&gt;" style="rounded=0;whiteSpace=wrap;html=1;sketch=1;hachureGap=4;jiggle=2;curveFitting=1;fontFamily=Architects Daughter;fontSource=https%3A%2F%2Ffonts.googleapis.com%2Fcss%3Ffamily%3DArchitects%2BDaughter;container=0;" parent="1" vertex="1">
          <mxGeometry x="-982.4047619047623" y="-887.5" width="312.70634920634905" height="60" as="geometry" />
        </mxCell>
        <mxCell id="1RPcp6b-KM-TzmGu6j6Q-37" value="&lt;font style=&quot;font-size: 20px;&quot;&gt;K3s&lt;/font&gt;" style="whiteSpace=wrap;html=1;aspect=fixed;sketch=1;hachureGap=4;jiggle=2;curveFitting=1;fontFamily=Architects Daughter;fontSource=https%3A%2F%2Ffonts.googleapis.com%2Fcss%3Ffamily%3DArchitects%2BDaughter;container=0;" parent="1" vertex="1">
          <mxGeometry x="-1012.666666666667" y="-722.5" width="80" height="80" as="geometry" />
        </mxCell>
        <mxCell id="6lFlrr7OIrl2liaq1CcA-6" value="&lt;font style=&quot;font-size: 20px;&quot;&gt;k.coresec.zone&lt;/font&gt;" style="rounded=0;whiteSpace=wrap;html=1;sketch=1;hachureGap=4;jiggle=2;curveFitting=1;fontFamily=Architects Daughter;fontSource=https%3A%2F%2Ffonts.googleapis.com%2Fcss%3Ffamily%3DArchitects%2BDaughter;container=0;" parent="1" vertex="1">
          <mxGeometry x="-1602.7738095238096" y="-810" width="272.3571428571427" height="60" as="geometry" />
        </mxCell>
        <mxCell id="1RPcp6b-KM-TzmGu6j6Q-29" style="edgeStyle=orthogonalEdgeStyle;rounded=0;sketch=1;hachureGap=4;jiggle=2;curveFitting=1;orthogonalLoop=1;jettySize=auto;html=1;exitX=1;exitY=0.5;exitDx=0;exitDy=0;entryX=0;entryY=0.5;entryDx=0;entryDy=0;fontFamily=Architects Daughter;fontSource=https%3A%2F%2Ffonts.googleapis.com%2Fcss%3Ffamily%3DArchitects%2BDaughter;curved=1;startArrow=classic;startFill=1;" parent="1" source="1RPcp6b-KM-TzmGu6j6Q-28" target="1RPcp6b-KM-TzmGu6j6Q-24" edge="1">
          <mxGeometry relative="1" as="geometry" />
        </mxCell>
        <mxCell id="1RPcp6b-KM-TzmGu6j6Q-33" style="rounded=0;sketch=1;hachureGap=4;jiggle=2;curveFitting=1;orthogonalLoop=1;jettySize=auto;html=1;exitX=0;exitY=0.5;exitDx=0;exitDy=0;entryX=1;entryY=0.5;entryDx=0;entryDy=0;fontFamily=Architects Daughter;fontSource=https%3A%2F%2Ffonts.googleapis.com%2Fcss%3Ffamily%3DArchitects%2BDaughter;edgeStyle=orthogonalEdgeStyle;curved=1;startArrow=classic;startFill=1;" parent="1" source="1RPcp6b-KM-TzmGu6j6Q-31" target="1RPcp6b-KM-TzmGu6j6Q-24" edge="1">
          <mxGeometry relative="1" as="geometry" />
        </mxCell>
        <mxCell id="1RPcp6b-KM-TzmGu6j6Q-39" value="&lt;font style=&quot;font-size: 16px;&quot;&gt;HTTP / HTTPS&lt;/font&gt;" style="edgeLabel;html=1;align=center;verticalAlign=middle;resizable=0;points=[];sketch=1;hachureGap=4;jiggle=2;curveFitting=1;fontFamily=Architects Daughter;fontSource=https%3A%2F%2Ffonts.googleapis.com%2Fcss%3Ffamily%3DArchitects%2BDaughter;container=0;" parent="1RPcp6b-KM-TzmGu6j6Q-33" vertex="1" connectable="0">
          <mxGeometry x="-0.0784" y="4" relative="1" as="geometry">
            <mxPoint y="1" as="offset" />
          </mxGeometry>
        </mxCell>
        <mxCell id="1RPcp6b-KM-TzmGu6j6Q-38" style="edgeStyle=orthogonalEdgeStyle;rounded=0;sketch=1;hachureGap=4;jiggle=2;curveFitting=1;orthogonalLoop=1;jettySize=auto;html=1;exitX=0.5;exitY=1;exitDx=0;exitDy=0;fontFamily=Architects Daughter;fontSource=https%3A%2F%2Ffonts.googleapis.com%2Fcss%3Ffamily%3DArchitects%2BDaughter;curved=1;endArrow=classic;startFill=1;startArrow=classic;endFill=1;" parent="1" source="1RPcp6b-KM-TzmGu6j6Q-34" target="1RPcp6b-KM-TzmGu6j6Q-37" edge="1">
          <mxGeometry relative="1" as="geometry" />
        </mxCell>
        <mxCell id="1RPcp6b-KM-TzmGu6j6Q-40" value="&lt;font style=&quot;font-size: 16px;&quot;&gt;HTTPS&lt;/font&gt;" style="edgeLabel;html=1;align=center;verticalAlign=middle;resizable=0;points=[];sketch=1;hachureGap=4;jiggle=2;curveFitting=1;fontFamily=Architects Daughter;fontSource=https%3A%2F%2Ffonts.googleapis.com%2Fcss%3Ffamily%3DArchitects%2BDaughter;container=0;" parent="1RPcp6b-KM-TzmGu6j6Q-38" vertex="1" connectable="0">
          <mxGeometry x="-0.0549" y="1" relative="1" as="geometry">
            <mxPoint x="1" as="offset" />
          </mxGeometry>
        </mxCell>
        <mxCell id="6lFlrr7OIrl2liaq1CcA-2" style="edgeStyle=orthogonalEdgeStyle;rounded=0;sketch=1;hachureGap=4;jiggle=2;curveFitting=1;orthogonalLoop=1;jettySize=auto;html=1;exitX=1;exitY=0.5;exitDx=0;exitDy=0;entryX=0;entryY=0.5;entryDx=0;entryDy=0;fontFamily=Architects Daughter;fontSource=https%3A%2F%2Ffonts.googleapis.com%2Fcss%3Ffamily%3DArchitects%2BDaughter;curved=1;startArrow=classic;startFill=1;" parent="1" source="1RPcp6b-KM-TzmGu6j6Q-28" target="6lFlrr7OIrl2liaq1CcA-6" edge="1">
          <mxGeometry relative="1" as="geometry">
            <mxPoint x="-1610.3392857142858" y="-770" as="targetPoint" />
          </mxGeometry>
        </mxCell>
        <mxCell id="6lFlrr7OIrl2liaq1CcA-4" style="edgeStyle=orthogonalEdgeStyle;rounded=0;sketch=1;hachureGap=4;jiggle=2;curveFitting=1;orthogonalLoop=1;jettySize=auto;html=1;exitX=1;exitY=0.5;exitDx=0;exitDy=0;entryX=0;entryY=0.5;entryDx=0;entryDy=0;fontFamily=Architects Daughter;fontSource=https%3A%2F%2Ffonts.googleapis.com%2Fcss%3Ffamily%3DArchitects%2BDaughter;curved=1;startArrow=classic;startFill=1;" parent="1" source="6lFlrr7OIrl2liaq1CcA-6" target="1RPcp6b-KM-TzmGu6j6Q-34" edge="1">
          <mxGeometry relative="1" as="geometry">
            <mxPoint x="-1325.3730158730161" y="-770" as="sourcePoint" />
          </mxGeometry>
        </mxCell>
        <mxCell id="6lFlrr7OIrl2liaq1CcA-5" value="&lt;font style=&quot;font-size: 16px;&quot;&gt;SSH / HTTPS&lt;/font&gt;" style="edgeLabel;html=1;align=center;verticalAlign=middle;resizable=0;points=[];sketch=1;hachureGap=4;jiggle=2;curveFitting=1;fontFamily=Architects Daughter;fontSource=https%3A%2F%2Ffonts.googleapis.com%2Fcss%3Ffamily%3DArchitects%2BDaughter;container=0;" parent="6lFlrr7OIrl2liaq1CcA-4" vertex="1" connectable="0">
          <mxGeometry x="-0.0027" y="1" relative="1" as="geometry">
            <mxPoint as="offset" />
          </mxGeometry>
        </mxCell>
      </root>
    </mxGraphModel>
  </diagram>
</mxfile>
